<svg xmlns="http://www.w3.org/2000/svg" width="12.531" height="14.961" viewBox="0 0 12.531 14.961"><defs><style>.a{isolation:isolate;}.b{fill:none;stroke:#fff;stroke-width:1.5px;}.c{fill:#fff;}</style></defs><g class="a" transform="translate(0.762 0.75)"><g transform="translate(-0.001)"><g transform="translate(0)"><path class="b" d="M53.645,11.143,52.7,9.568a4.68,4.68,0,0,1-.667-2.408V5.78A3.858,3.858,0,0,0,49.28,2.089V1.1a1.1,1.1,0,1,0-2.2,0v.988A3.858,3.858,0,0,0,44.326,5.78V7.16a4.683,4.683,0,0,1-.667,2.407l-.945,1.575a.276.276,0,0,0,.236.417H53.409a.275.275,0,0,0,.236-.417Z" transform="translate(-42.675)"/></g></g><g transform="translate(3.77 13.11)"><path class="c" d="M188.815,469.333a1.915,1.915,0,0,0,3.467,0Z" transform="translate(-188.815 -469.333)"/></g></g></svg>