<svg xmlns="http://www.w3.org/2000/svg" width="16.237" height="16.943" viewBox="0 0 16.237 16.943"><defs><style>.a{fill:#ffa000;}.b{fill:#ffc107;}</style></defs><g transform="translate(0 0.706)"><path class="a" d="M363.019,29.1a.353.353,0,1,1,0-.706,3.534,3.534,0,0,0,3.53-3.53V22.039h-3.177a.353.353,0,0,1,0-.706h3.53a.353.353,0,0,1,.353.353v3.177A4.241,4.241,0,0,1,363.019,29.1Z" transform="translate(-351.018 -21.333)"/><path class="a" d="M14.9,29.1a4.241,4.241,0,0,1-4.236-4.236V21.686a.353.353,0,0,1,.353-.353h3.53a.353.353,0,1,1,0,.706H11.373v2.824a3.534,3.534,0,0,0,3.53,3.53.353.353,0,1,1,0,.706Z" transform="translate(-10.667 -21.333)"/><path class="a" d="M144.755,302.852l-.19-.195c-.74-.761-.943-2.889-.959-3.644a.353.353,0,0,0-.353-.346h-1.412a.353.353,0,0,0-.353.345c-.015.755-.218,2.882-.959,3.644l-.19.195c-.969,1-1.675,1.718-1.675,2.522a.353.353,0,0,0,.353.353h7.059a.353.353,0,0,0,.353-.353C146.43,304.569,145.724,303.849,144.755,302.852Z" transform="translate(-134.429 -289.49)"/></g><path class="b" d="M126.157,0h-8.471a.353.353,0,0,0-.353.353V6a4.589,4.589,0,0,0,9.177,0V.353A.353.353,0,0,0,126.157,0Z" transform="translate(-113.803 0)"/></svg>