<svg xmlns="http://www.w3.org/2000/svg" width="47.827" height="61.767" viewBox="0 0 47.827 61.767"><defs><style>.a{fill:#44099f;}.b{fill:#52f1ec;}</style></defs><path class="a" d="M96.783,19.311s-2.491,6.548-7.212,5.132c-3.943-1.183-3.717-6.531-1.821-10.943,3.285-7.645-6.1-13.5-6.1-13.5s.147,7.754-5.817,10.708c-5.11,2.531-6.512,8.051-4.131,12.174,2.208,3.823-.134,6.14-2.19,6.966-5.232,2.1-8.276-4.4-8.276-4.4A23.914,23.914,0,0,0,81.507,61.764,11.052,11.052,0,0,1,70.646,50.738a18.4,18.4,0,0,1,1.7-7.568l.639-1.456,3.235.945a12.2,12.2,0,0,1,3.856-6.669,13.636,13.636,0,0,1,3.985-2.549l2.2-.834L86.5,34.95a14.107,14.107,0,0,0,1.893,6.064c.924,1.507,1.781,2.772,2.783,4.206a9.627,9.627,0,0,1,1.55,5.513A11.039,11.039,0,0,1,81.685,61.767h0a23.912,23.912,0,0,0,15.1-42.456Z" transform="translate(-57.772 0)"/><path class="b" d="M209.32,327.574a6.1,6.1,0,0,0-.9-3.429c-.9-1.286-1.873-2.709-2.9-4.387a16.313,16.313,0,0,1-1.974-4.923,8.786,8.786,0,0,0-3.747,7.053l-.045,2.367-4.46-1.3a13.653,13.653,0,0,0-.817,4.608v.022a7.422,7.422,0,0,0,14.843,0Z" transform="translate(-177.985 -276.853)"/></svg>