<svg xmlns="http://www.w3.org/2000/svg" width="22.86" height="15.392" viewBox="0 0 22.86 15.392"><defs><style>.a,.b,.d{fill:#5064cc;}.c,.d{stroke:none;}</style></defs><g transform="translate(0 0)"><g transform="translate(0)"><g transform="translate(9.507 11.563)"><path class="a" d="M194.407,309.326v-.089c-.455,0-.891-.03-1.311-.064a5.973,5.973,0,0,1-.95,1.628,15.454,15.454,0,0,0,2.291.2Z" transform="translate(-192.146 -309.173)"/></g><g transform="translate(0 4.507)"><g transform="translate(0 0)"><path class="a" d="M9.764,170.506a4.967,4.967,0,0,0-3.374-3.716,5.04,5.04,0,0,0-1.46-.218,4.93,4.93,0,1,0,3.32,8.574A4.9,4.9,0,0,0,9.863,171.5,5.175,5.175,0,0,0,9.764,170.506Zm-4.834.331a1.867,1.867,0,0,1,.5,3.666v.435a.495.495,0,0,1-.99,0v-.43A1.879,1.879,0,0,1,3.06,172.7a.495.495,0,0,1,.99,0,.878.878,0,1,0,.876-.881,1.867,1.867,0,0,1-.475-3.671v-.213a.495.495,0,1,1,.99,0v.223a1.87,1.87,0,0,1,1.361,1.8.495.495,0,0,1-.99,0,.881.881,0,1,0-.881.876Z" transform="translate(0 -166.573)"/></g></g><g transform="translate(10.739 8.846)"><g transform="translate(0 0)"><path class="a" d="M218.06,256.059l-.03-1.751c-.307,0-.609-.015-.9-.035.015.2.025.391.025.584a6.084,6.084,0,0,1-.114,1.158C217.372,256.044,217.714,256.059,218.06,256.059Z" transform="translate(-217.046 -254.273)"/></g></g><g transform="translate(7.008 2.444)"><g transform="translate(0 0)"><path class="a" d="M151.808,124.873a5.933,5.933,0,0,1-1.074.43,16.346,16.346,0,0,1-8.02.04,5.482,5.482,0,0,1-1.069-.411l.035,1.4a5.709,5.709,0,0,1,1.549.876c.015,0,.025,0,.04.01a14.154,14.154,0,0,0,3.369.371,14,14,0,0,0,3.81-.48c1.074-.327,1.311-.668,1.311-.732a.284.284,0,0,1,.05-.2Z" transform="translate(-141.646 -124.873)"/></g></g><g transform="translate(6.959)"><path class="a" d="M149.492,75.953a13.813,13.813,0,0,0-3.81-.48,13.364,13.364,0,0,0-3.76.48c-1.044.317-1.272.628-1.277.727,0,0,0,0,0,.01.025.109.322.445,1.385.752a13.585,13.585,0,0,0,3.646.445,13.979,13.979,0,0,0,3.8-.475c1.074-.322,1.316-.663,1.316-.732S150.566,76.279,149.492,75.953Z" transform="translate(-140.646 -75.473)"/></g><g transform="translate(12.777 12.686)"><path class="a" d="M268.319,333.357v-1.484a6.336,6.336,0,0,1-1.039.421,14.629,14.629,0,0,1-4.087.52,15.223,15.223,0,0,1-3.716-.426,6.446,6.446,0,0,1-1.232-.45l.025,1.435v.01c0,.074.218.406,1.262.727a13.461,13.461,0,0,0,3.755.47,13.209,13.209,0,0,0,3.765-.485c1.044-.327,1.272-.668,1.272-.737Z" transform="translate(-258.246 -331.873)"/></g><g transform="translate(9.749 5.205)"><g transform="translate(0 0)"><path class="a" d="M204.458,180.673a6.249,6.249,0,0,1-1.069.425,14.766,14.766,0,0,1-4.1.52,17.816,17.816,0,0,1-2.241-.144,5.865,5.865,0,0,1,.886,1.841c.426.03.886.049,1.361.049h.049c.811-.891,2.993-1.336,5.116-1.4v-1.3Z" transform="translate(-197.046 -180.673)"/></g></g><g transform="translate(12.733 9.95)"><g transform="translate(0 0)"><path class="a" d="M266.39,276.994a14.812,14.812,0,0,1-4.042.5,14.626,14.626,0,0,1-3.923-.48,6.085,6.085,0,0,1-1.079-.416l.02,1.138,0,.416c.386.48,2.231,1.1,4.972,1.1a13.689,13.689,0,0,0,3.795-.475c1.069-.327,1.3-.663,1.3-.732s.03-.114.03-.163h0v-1.311A5.653,5.653,0,0,1,266.39,276.994Z" transform="translate(-257.346 -276.573)"/></g></g><g transform="translate(12.698 7.501)"><path class="a" d="M265.492,227.543a13.866,13.866,0,0,0-3.81-.47H261.6a13.464,13.464,0,0,0-3.528.421c-1.024.287-1.376.613-1.42.747a.038.038,0,0,0,0,.02l.01.02c.03.1.322.44,1.385.752a15.377,15.377,0,0,0,7.407-.025c1.1-.326,1.346-.668,1.351-.742v0C266.794,228.186,266.546,227.86,265.492,227.543Z" transform="translate(-256.646 -227.073)"/></g></g><g class="b" transform="translate(1.944 5.487)"><path class="c" d="M 2.914380788803101 7.612388134002686 C 1.583090782165527 7.612388134002686 0.5000007748603821 6.093508243560791 0.5000007748603821 4.226548194885254 C 0.5000007748603821 2.201708316802979 1.718470811843872 0.1386683285236359 2.914380788803101 0.1386683285236359 C 4.110291004180908 0.1386683285236359 5.328760623931885 2.201708316802979 5.328760623931885 4.226548194885254 C 5.328760623931885 6.093508243560791 4.245670795440674 7.612388134002686 2.914380788803101 7.612388134002686 Z"/><path class="d" d="M 2.914380788803101 0.6386685371398926 C 2.096190690994263 0.6386685371398926 1.000000953674316 2.412528514862061 1.000000953674316 4.226548194885254 C 1.000000953674316 5.790838241577148 1.876680850982666 7.112388134002686 2.914380788803101 7.112388134002686 C 3.952080726623535 7.112388134002686 4.828760623931885 5.790838241577148 4.828760623931885 4.226548194885254 C 4.828760623931885 2.412528514862061 3.732570886611938 0.6386685371398926 2.914380788803101 0.6386685371398926 M 2.914380788803101 -0.3613319396972656 C 4.523950576782227 -0.3613319396972656 5.828760623931885 2.080458164215088 5.828760623931885 4.226548194885254 C 5.828760623931885 6.37263822555542 4.523950576782227 8.112388610839844 2.914380788803101 8.112388610839844 C 1.304811000823975 8.112388610839844 9.5367431640625e-07 6.37263822555542 9.5367431640625e-07 4.226548194885254 C 9.5367431640625e-07 2.080458164215088 1.304811000823975 -0.3613319396972656 2.914380788803101 -0.3613319396972656 Z"/></g></g></svg>