<svg xmlns="http://www.w3.org/2000/svg" width="16.484" height="16.485" viewBox="0 0 16.484 16.485"><defs><style>.a{fill:#029b97;}</style></defs><g transform="translate(0.993 1)"><g transform="translate(-0.993 -1)"><g transform="translate(0 0)"><path class="a" d="M5.84,183.82,3.9,185.763a2.06,2.06,0,0,1-2.914-2.914l3.886-3.886a2.06,2.06,0,0,1,2.914,0,.687.687,0,1,0,.971-.971,3.434,3.434,0,0,0-4.856,0L.012,181.878a3.434,3.434,0,0,0,4.857,4.856l1.942-1.942a.687.687,0,1,0-.971-.971Z" transform="translate(0.993 -171.256)"/><path class="a" d="M199.267.005a3.435,3.435,0,0,0-4.857,0l-2.331,2.331a.687.687,0,1,0,.971.971L195.381.977A2.06,2.06,0,0,1,198.3,3.89l-4.274,4.274a2.06,2.06,0,0,1-2.914,0,.687.687,0,0,0-.971.971,3.434,3.434,0,0,0,4.856,0l4.274-4.274A3.434,3.434,0,0,0,199.267.005Z" transform="translate(-183.788 1)"/></g></g></g></svg>