<svg width="250" height="246" viewBox="0 0 250 246" fill="none" xmlns="http://www.w3.org/2000/svg">
<path d="M15.1729 166.3V166.139H18.1006C18.7509 166.139 19.3133 166.068 19.7898 165.926C20.2663 165.784 20.6741 165.6 21.0089 165.374C21.3438 165.147 21.6206 164.898 21.8374 164.625C22.0542 164.355 22.2388 164.078 22.3912 163.797C22.8462 162.951 23.121 162.091 23.2197 161.213C23.3163 160.335 23.3657 159.485 23.3657 158.661C23.3657 157.836 23.312 156.993 23.2047 156.126C23.0952 155.259 22.769 154.434 22.2281 153.655C21.9018 153.157 21.5391 152.767 21.1399 152.483C20.7385 152.202 20.3221 151.996 19.8885 151.867C19.455 151.736 19.0214 151.655 18.5878 151.623C18.1542 151.59 17.7421 151.573 17.3515 151.573H2.88275V174.331H7.17551V154.986H7.19054H7.26351H15.7267C16.0723 154.986 16.4758 155.014 16.9287 155.068C17.3837 155.121 17.7851 155.323 18.1306 155.669C18.3689 155.907 18.5642 156.265 18.7166 156.742C18.869 157.218 18.942 157.912 18.942 158.822C18.942 159.017 18.9377 159.255 18.9269 159.536C18.9141 159.817 18.8947 160.105 18.8604 160.397C18.8282 160.689 18.7724 160.977 18.6994 161.258C18.6222 161.539 18.532 161.769 18.4225 161.94C18.1199 162.395 17.7464 162.676 17.3 162.786C16.8557 162.895 16.45 162.949 16.0808 162.949H11.7902C11.1613 162.949 10.6827 163.095 10.3586 163.389C10.0323 163.681 9.86921 164.054 9.86921 164.512V165.031C9.86921 165.357 9.98941 165.699 10.2277 166.055C10.4659 166.411 10.7042 166.712 10.9424 166.95L18.4182 174.329H23.8164L15.1729 166.3Z" fill="black"/>
<path d="M59.6416 170.917V151.572H55.351V174.33H73.4922V170.917H59.6416Z" fill="black"/>
<path d="M82.8054 170.917V151.572H78.5126V174.33H96.6538V170.917H82.8054Z" fill="black"/>
<path d="M113.121 151.572H117.738L108.115 167.372V174.33H103.823V167.372L94.2004 151.57H98.8152L105.969 163.504L113.121 151.572Z" fill="black"/>
<path d="M36.7247 151.881C36.7676 151.851 36.7483 151.819 36.7032 151.789C36.6925 151.864 36.6968 151.901 36.7247 151.881Z" fill="black"/>
<path d="M36.2697 151.572L36.2353 151.654L26.729 174.33H31.2471L32.4276 171.388L38.3989 156.256C38.4633 156.082 38.5513 155.882 38.6607 155.652C38.768 155.425 38.8968 155.311 39.0514 155.311C39.2038 155.311 39.3325 155.425 39.442 155.652C39.5493 155.88 39.6373 156.08 39.7017 156.256L45.5678 171.171L46.8535 174.332H51.3737L41.8438 151.574H36.2697V151.572ZM36.7247 151.881C36.6946 151.903 36.6903 151.864 36.7032 151.789C36.7483 151.819 36.7698 151.849 36.7247 151.881Z" fill="black"/>
<path d="M160.629 166.298V166.137H163.556C164.207 166.137 164.769 166.067 165.246 165.925C165.722 165.783 166.13 165.599 166.465 165.373C166.8 165.146 167.076 164.897 167.293 164.624C167.51 164.354 167.695 164.077 167.847 163.796C168.302 162.95 168.577 162.089 168.676 161.212C168.772 160.334 168.821 159.484 168.821 158.659C168.821 157.835 168.768 156.992 168.661 156.125C168.551 155.257 168.225 154.433 167.684 153.654C167.358 153.156 166.995 152.766 166.596 152.482C166.194 152.201 165.778 151.995 165.344 151.866C164.911 151.735 164.477 151.654 164.044 151.622C163.61 151.589 163.198 151.572 162.807 151.572H148.339V174.33H152.631V154.985H152.646H152.719H161.183C161.528 154.985 161.932 155.013 162.385 155.066C162.84 155.12 163.241 155.322 163.586 155.667C163.825 155.906 164.02 156.264 164.172 156.741C164.325 157.217 164.398 157.91 164.398 158.82C164.398 159.016 164.394 159.254 164.383 159.535C164.37 159.816 164.351 160.104 164.316 160.396C164.282 160.688 164.228 160.975 164.155 161.257C164.078 161.538 163.988 161.767 163.878 161.939C163.576 162.394 163.202 162.675 162.756 162.785C162.312 162.894 161.906 162.948 161.537 162.948H157.246C156.617 162.948 156.139 163.094 155.814 163.388C155.488 163.68 155.325 164.053 155.325 164.51V165.03C155.325 165.356 155.445 165.697 155.684 166.054C155.922 166.41 156.16 166.711 156.398 166.949L163.874 174.328H169.272L160.629 166.298Z" fill="black"/>
<path d="M223.391 160.578C223.359 159.842 223.267 159.104 223.114 158.368C222.962 157.631 222.728 156.917 222.414 156.221C222.099 155.528 221.672 154.878 221.131 154.27C220.438 153.512 219.547 152.873 218.465 152.351C217.381 151.832 216.048 151.57 214.466 151.57H202.342V174.328H215.052C215.941 174.328 216.731 174.242 217.426 174.068C218.12 173.894 218.727 173.667 219.246 173.386C219.766 173.105 220.199 172.802 220.547 172.476C220.893 172.152 221.187 171.836 221.425 171.533C221.88 170.926 222.243 170.239 222.513 169.469C222.784 168.7 222.99 167.915 223.131 167.112C223.273 166.309 223.359 165.53 223.391 164.77C223.423 164.013 223.44 163.319 223.44 162.69C223.44 162.019 223.425 161.315 223.391 160.578ZM218.663 166.706C218.424 167.67 218.163 168.37 217.881 168.803C217.383 169.606 216.739 170.158 215.947 170.462C215.158 170.765 214.164 170.917 212.975 170.917H206.639C206.636 170.19 206.634 169.473 206.634 169.357V154.985H212.552C212.943 154.985 213.352 155.006 213.788 155.049C214.222 155.092 214.655 155.174 215.089 155.294C215.522 155.414 215.939 155.582 216.34 155.798C216.742 156.015 217.104 156.298 217.428 156.644C217.774 157.013 218.057 157.43 218.274 157.895C218.491 158.361 218.652 158.844 218.761 159.342C218.869 159.84 218.94 160.349 218.974 160.87C219.006 161.39 219.021 161.89 219.021 162.366C219.019 164.296 218.901 165.743 218.663 166.706Z" fill="black"/>
<path d="M233.17 170.917V164.414H246.66V160.999H233.17V154.985H246.986V151.572H228.877V174.33H247.117V170.917H233.17Z" fill="black"/>
<path d="M182.524 151.572L182.49 151.654L172.983 174.33H177.501L178.682 171.388L184.653 156.256C184.718 156.082 184.806 155.882 184.915 155.652C185.022 155.425 185.151 155.311 185.306 155.311C185.458 155.311 185.587 155.425 185.696 155.652C185.804 155.88 185.892 156.08 185.956 156.256L191.822 171.171L193.108 174.332H197.628L188.098 151.574H182.524V151.572ZM182.981 151.881L182.96 151.789L182.981 151.881Z" fill="black"/>
<path d="M123.05 151.573L120.97 154.986H129.794V174.331H134.084V154.986H142.994V151.573H123.05Z" fill="black"/>
<path d="M24.8481 177.724H27.1061C27.765 177.724 28.3617 177.818 28.8983 178.005C29.4349 178.192 29.8899 178.451 30.2698 178.786C30.6476 179.119 30.9395 179.514 31.1456 179.971C31.3516 180.428 31.4546 180.926 31.4546 181.465C31.4546 182.004 31.3516 182.502 31.1456 182.959C30.9395 183.416 30.6476 183.811 30.2698 184.144C29.8921 184.476 29.4349 184.738 28.8983 184.925C28.3639 185.112 27.765 185.206 27.1061 185.206H24.8481V177.724ZM27.1404 183.959C27.5375 183.959 27.9045 183.903 28.2415 183.79C28.5785 183.676 28.8683 183.513 29.1129 183.298C29.3555 183.083 29.5465 182.822 29.6796 182.515C29.8148 182.205 29.8813 181.856 29.8813 181.465C29.8813 181.074 29.8148 180.725 29.6796 180.415C29.5444 180.106 29.3555 179.847 29.1129 179.632C28.8704 179.417 28.5785 179.254 28.2415 179.14C27.9045 179.027 27.5375 178.971 27.1404 178.971H26.4214V183.959H27.1404Z" fill="black"/>
<path d="M44.9812 180.005C44.9812 180.538 44.8309 180.984 44.5326 181.347C44.2321 181.71 43.8028 181.989 43.2405 182.184L45.7689 185.206H43.8135L41.6457 182.476H41.1392V185.206H39.5659V177.724H41.8024C42.266 177.724 42.6931 177.771 43.0838 177.863C43.4744 177.956 43.8092 178.099 44.0904 178.291C44.3716 178.482 44.5905 178.72 44.7472 179.003C44.9039 179.291 44.9812 179.623 44.9812 180.005ZM43.4079 180.04C43.4079 179.658 43.2576 179.381 42.9593 179.209C42.6588 179.037 42.2703 178.952 41.7917 178.952H41.1413V181.289H41.6135C42.1522 181.289 42.588 181.184 42.9164 180.973C43.2448 180.761 43.4079 180.452 43.4079 180.04Z" fill="black"/>
<path d="M55.1485 185.208H53.5752V177.726H55.1485V185.208Z" fill="black"/>
<path d="M68.2049 177.724H69.8448L67.3271 185.206H65.5069L62.9914 177.724H64.6312L66.417 183.611L68.2049 177.724Z" fill="black"/>
<path d="M77.6318 177.724H82.1264V178.971H79.2051V180.78H81.9911V182.027H79.2051V183.959H82.1607V185.206H77.634V177.724H77.6318Z" fill="black"/>
<path d="M104.899 177.724V178.971H102.832V185.206H101.259V178.971H99.1922V177.724H104.899Z" fill="black"/>
<path d="M117.54 185.208V182.062H114.438V185.208H112.865V177.726H114.438V180.759H117.54V177.726H119.113V185.208H117.54Z" fill="black"/>
<path d="M127.651 177.724H132.146V178.971H129.224V180.78H132.01V182.027H129.224V183.959H132.18V185.206H127.653V177.724H127.651Z" fill="black"/>
<path d="M156.2 177.724H157.617L158.166 185.206H156.627L156.37 180.555L154.717 183.948H153.099L151.446 180.555L151.188 185.206H149.649L150.199 177.724H151.613L153.906 182.555L156.2 177.724Z" fill="black"/>
<path d="M173.277 185.208H171.648L171.12 183.635H168.042L167.514 185.208H165.885L168.726 177.726H170.435L173.277 185.208ZM169.581 178.984L168.458 182.388H170.705L169.581 178.984Z" fill="black"/>
<path d="M186.659 180.005C186.659 180.538 186.509 180.984 186.211 181.347C185.91 181.71 185.481 181.989 184.919 182.184L187.447 185.206H185.492L183.324 182.476H182.817V185.206H181.244V177.724H183.481C183.944 177.724 184.371 177.771 184.762 177.863C185.15 177.958 185.487 178.099 185.769 178.291C186.05 178.482 186.269 178.72 186.425 179.003C186.58 179.291 186.659 179.623 186.659 180.005ZM185.086 180.04C185.086 179.658 184.936 179.381 184.637 179.209C184.337 179.037 183.948 178.952 183.47 178.952H182.82V181.289H183.292C183.83 181.289 184.266 181.184 184.595 180.973C184.921 180.761 185.086 180.452 185.086 180.04Z" fill="black"/>
<path d="M195.198 185.208V177.726H196.771V181.321L199.366 177.726H201.186L198.432 181.422L201.375 185.208H199.432L196.769 181.534V185.208H195.198Z" fill="black"/>
<path d="M209.186 177.724H213.68V178.971H210.759V180.78H213.545V182.027H210.759V183.959H213.714V185.206H209.188V177.724H209.186Z" fill="black"/>
<path d="M227.185 177.724V178.971H225.118V185.206H223.545V178.971H221.478V177.724H227.185Z" fill="black"/>
<path d="M162.227 88.571C160.873 87.0872 158.572 86.9833 157.088 88.3375L124.564 117.599C123.081 118.953 122.977 121.255 124.331 122.738C125.685 124.222 127.986 124.326 129.47 122.972L161.994 93.7105C163.478 92.352 163.582 90.0505 162.227 88.571Z" fill="black"/>
<path d="M127.017 131.231C133.064 131.231 137.967 126.328 137.967 120.281C137.967 114.234 133.064 109.332 127.017 109.332C120.97 109.332 116.068 114.234 116.068 120.281C116.068 126.328 120.97 131.231 127.017 131.231Z" fill="black"/>
<path d="M178.515 137.676L187.089 141.228C188.997 135.756 190.161 129.954 190.507 123.919H181.223C180.903 128.704 179.99 133.311 178.515 137.676Z" fill="url(#paint0_linear)"/>
<path d="M175.716 96.1721L184.299 92.6161C181.708 87.2647 178.407 82.3373 174.487 77.9507L167.92 84.5177C171.001 88.0391 173.618 91.9455 175.716 96.1721Z" fill="url(#paint1_linear)"/>
<path d="M144.412 68.7836L147.964 60.2094C142.492 58.3016 136.69 57.1378 130.656 56.7917V66.0755C135.44 66.3957 140.047 67.3085 144.412 68.7836Z" fill="url(#paint2_linear)"/>
<path d="M162.781 79.3737L169.348 72.8067C164.961 68.8916 160.034 65.5864 154.683 62.9951L151.127 71.5781C155.353 73.6762 159.26 76.2935 162.781 79.3737Z" fill="url(#paint3_linear)"/>
<path d="M181.223 116.643H190.507C190.165 110.608 189.001 104.803 187.089 99.3345L178.515 102.886C179.99 107.251 180.903 111.858 181.223 116.643Z" fill="url(#paint4_linear)"/>
<path d="M63.3418 120.281C63.3418 123.829 63.6965 127.285 64.2676 130.668H73.6638C73.0019 127.307 72.6299 123.842 72.6299 120.281C72.6342 105.248 78.7124 91.6772 88.5585 81.8224C97.6087 72.7766 109.808 66.9753 123.379 66.0755V56.7917C89.9126 58.6909 63.3461 86.3432 63.3418 120.281Z" fill="black"/>
<defs>
<linearGradient id="paint0_linear" x1="134.539" y1="54.8835" x2="190.055" y2="139.221" gradientUnits="userSpaceOnUse">
<stop stop-color="#00C176"/>
<stop offset="0.25" stop-color="#88C100"/>
<stop offset="0.6969" stop-color="#FF8A00"/>
<stop offset="0.9209" stop-color="#FF252C"/>
<stop offset="1" stop-color="#FF003C"/>
</linearGradient>
<linearGradient id="paint1_linear" x1="148.304" y1="45.8232" x2="203.819" y2="130.16" gradientUnits="userSpaceOnUse">
<stop stop-color="#00C176"/>
<stop offset="0.25" stop-color="#88C100"/>
<stop offset="0.6969" stop-color="#FF8A00"/>
<stop offset="0.9209" stop-color="#FF252C"/>
<stop offset="1" stop-color="#FF003C"/>
</linearGradient>
<linearGradient id="paint2_linear" x1="134.073" y1="55.1902" x2="189.589" y2="139.527" gradientUnits="userSpaceOnUse">
<stop stop-color="#00C176"/>
<stop offset="0.25" stop-color="#88C100"/>
<stop offset="0.6969" stop-color="#FF8A00"/>
<stop offset="0.9209" stop-color="#FF252C"/>
<stop offset="1" stop-color="#FF003C"/>
</linearGradient>
<linearGradient id="paint3_linear" x1="144.517" y1="48.3156" x2="200.032" y2="132.653" gradientUnits="userSpaceOnUse">
<stop stop-color="#00C176"/>
<stop offset="0.25" stop-color="#88C100"/>
<stop offset="0.6969" stop-color="#FF8A00"/>
<stop offset="0.9209" stop-color="#FF252C"/>
<stop offset="1" stop-color="#FF003C"/>
</linearGradient>
<linearGradient id="paint4_linear" x1="144.766" y1="48.1515" x2="200.282" y2="132.489" gradientUnits="userSpaceOnUse">
<stop stop-color="#00C176"/>
<stop offset="0.25" stop-color="#88C100"/>
<stop offset="0.6969" stop-color="#FF8A00"/>
<stop offset="0.9209" stop-color="#FF252C"/>
<stop offset="1" stop-color="#FF003C"/>
</linearGradient>
</defs>
</svg>
