<svg xmlns="http://www.w3.org/2000/svg" width="25.561" height="25.561" viewBox="0 0 25.561 25.561"><defs><style>.a{fill:#5064cc;}.b{fill:#fff;}</style></defs><path class="a" d="M22.378,17.266a1.917,1.917,0,0,0,.383,2.115l.07.07a2.325,2.325,0,1,1-3.288,3.288l-.07-.07A1.933,1.933,0,0,0,16.2,24.039v.2a2.324,2.324,0,1,1-4.647,0v-.1a1.917,1.917,0,0,0-1.255-1.754,1.917,1.917,0,0,0-2.115.383l-.07.07a2.325,2.325,0,1,1-3.288-3.288l.07-.07A1.933,1.933,0,0,0,3.521,16.2h-.2a2.324,2.324,0,1,1,0-4.647h.1a1.917,1.917,0,0,0,1.754-1.255A1.917,1.917,0,0,0,4.8,8.18l-.07-.07A2.325,2.325,0,1,1,8.018,4.822l.07.07a1.917,1.917,0,0,0,2.115.383h.093a1.917,1.917,0,0,0,1.162-1.754v-.2a2.324,2.324,0,1,1,4.647,0v.1A1.933,1.933,0,0,0,19.38,4.8l.07-.07a2.325,2.325,0,1,1,3.288,3.288l-.07.07a1.917,1.917,0,0,0-.383,2.115v.093a1.917,1.917,0,0,0,1.754,1.162h.2a2.324,2.324,0,1,1,0,4.647h-.1A1.917,1.917,0,0,0,22.378,17.266Z" transform="translate(-1 -1)"/><circle class="b" cx="3.5" cy="3.5" r="3.5" transform="translate(9 9.561)"/></svg>