<svg xmlns="http://www.w3.org/2000/svg" width="25.816" height="26.685" viewBox="0 0 25.816 26.685"><defs><style>.a{fill:#5063ca;}</style></defs><g transform="translate(0 0)"><g transform="translate(0 0)"><circle class="a" cx="3.155" cy="3.155" r="3.155" transform="translate(7.114 20.376)"/><path class="a" d="M269.651,324.1h0a3.155,3.155,0,1,0,3.155,3.155A3.155,3.155,0,0,0,269.651,324.1Z" transform="translate(-250.177 -303.722)"/><path class="a" d="M31.763,17.156H15.314l-.322-1.867H28.512a.966.966,0,0,0,.9-.612l3.219-8.112a.966.966,0,0,0-.9-1.32H13.319L12.546.8A.966.966,0,0,0,11.58,0h-3.7a.966.966,0,1,0,0,1.931h2.9l2.768,16.352a.966.966,0,0,0,.966.8H31.763a.966.966,0,0,0,0-1.931Z" transform="translate(-6.913 0.001)"/></g></g></svg>