<?xml version="1.0" standalone="no"?>
<!DOCTYPE svg PUBLIC "-//W3C//DTD SVG 20010904//EN"
 "http://www.w3.org/TR/2001/REC-SVG-20010904/DTD/svg10.dtd">
<svg version="1.0" xmlns="http://www.w3.org/2000/svg"
 width="200.000000pt" height="200.000000pt" viewBox="0 0 200.000000 200.000000"
 preserveAspectRatio="xMidYMid meet">

<g transform="translate(0.000000,200.000000) scale(0.100000,-0.100000)"
fill="#9b9ca7" stroke="none">
<path d="M567 1706 c-230 -123 -425 -230 -433 -237 -11 -9 -14 -28 -12 -68 l3
-56 875 0 875 0 3 56 c3 53 1 58 -25 76 -50 35 -839 453 -854 453 -8 0 -202
-101 -432 -224z m493 59 c37 -19 60 -63 60 -115 0 -32 -7 -48 -34 -78 -31 -34
-39 -37 -86 -37 -47 0 -55 3 -86 37 -96 105 20 258 146 193z"/>
<path d="M315 1257 c-4 -13 -5 -39 -3 -58 2 -29 7 -34 31 -37 l27 -3 0 -235
c0 -219 -1 -234 -18 -234 -10 0 -23 -5 -30 -12 -16 -16 -16 -90 0 -106 13 -13
192 -17 222 -6 12 5 16 20 16 60 0 53 -1 55 -30 61 l-30 6 0 233 0 233 28 3
c26 3 27 5 27 58 l0 55 -117 3 c-117 3 -118 2 -123 -21z"/>
<path d="M694 1266 c-3 -7 -4 -33 -2 -57 3 -40 6 -44 31 -47 l27 -3 0 -145 c0
-80 4 -144 8 -142 4 2 33 14 65 27 l57 25 0 117 0 118 28 3 c23 3 28 8 30 37
2 19 1 44 -2 57 -6 23 -9 24 -122 24 -88 0 -116 -3 -120 -14z"/>
<path d="M1065 1257 c-4 -13 -5 -39 -3 -58 2 -29 7 -34 31 -37 l27 -3 0 -118
0 -117 57 -25 c32 -13 61 -25 65 -27 4 -2 8 62 8 142 l0 145 28 3 c26 3 27 5
27 58 l0 55 -117 3 c-117 3 -118 2 -123 -21z"/>
<path d="M1444 1266 c-3 -7 -4 -33 -2 -57 3 -40 6 -44 31 -47 l27 -3 0 -233 0
-233 -30 -6 c-29 -6 -30 -8 -30 -61 0 -40 4 -55 16 -60 30 -11 209 -7 222 6
16 16 16 90 0 106 -7 7 -20 12 -30 12 -17 0 -18 15 -18 234 l0 235 28 3 c23 3
28 8 30 37 2 19 1 44 -2 57 -6 23 -9 24 -122 24 -88 0 -116 -3 -120 -14z"/>
<path d="M863 851 c-138 -51 -229 -157 -259 -302 -47 -227 101 -439 335 -480
122 -22 268 28 355 121 189 202 128 526 -123 647 -76 37 -228 44 -308 14z
m292 -76 c116 -59 185 -173 185 -305 0 -129 -67 -242 -182 -305 -49 -28 -60
-30 -158 -30 -98 0 -109 2 -158 30 -30 16 -74 51 -97 78 -113 125 -115 325 -4
450 76 87 152 118 275 114 66 -3 92 -9 139 -32z"/>
<path d="M1060 670 l0 -40 -170 0 -170 0 0 -35 0 -35 169 0 170 0 3 -44 3 -45
93 54 c52 29 98 57 104 63 6 6 -25 29 -87 66 -53 31 -100 56 -106 56 -5 0 -9
-18 -9 -40z"/>
<path d="M822 403 c-60 -36 -90 -59 -84 -65 6 -6 52 -34 104 -64 l93 -54 3 45
3 45 170 0 169 0 0 35 0 35 -170 0 -170 0 0 40 c0 26 -4 40 -12 39 -7 0 -55
-26 -106 -56z"/>
<path d="M220 435 l0 -65 154 0 c85 0 157 3 159 8 3 4 2 33 0 65 l-5 57 -154
0 -154 0 0 -65z"/>
<path d="M1467 443 c-2 -32 -3 -61 0 -65 2 -5 74 -8 159 -8 l154 0 0 65 0 65
-154 0 -154 0 -5 -57z"/>
<path d="M120 250 l0 -60 249 0 250 0 -31 60 -31 60 -219 0 -218 0 0 -60z"/>
<path d="M1412 250 l-31 -60 250 0 249 0 0 60 0 60 -218 0 -219 0 -31 -60z"/>
</g>
</svg>
