<?xml version="1.0" standalone="no"?>
<!DOCTYPE svg PUBLIC "-//W3C//DTD SVG 20010904//EN"
 "http://www.w3.org/TR/2001/REC-SVG-20010904/DTD/svg10.dtd">
<svg version="1.0" xmlns="http://www.w3.org/2000/svg"
 width="512.000000pt" height="512.000000pt" viewBox="0 0 512.000000 512.000000"
 preserveAspectRatio="xMidYMid meet">

<g transform="translate(0.000000,512.000000) scale(0.100000,-0.100000)"
 stroke="none">
<path d="M63 4265 c-68 -29 -63 97 -63 -1695 0 -1174 3 -1627 11 -1643 6 -12
21 -30 33 -39 20 -17 167 -18 2513 -18 l2493 0 32 29 33 29 3 1627 c3 1805 7
1676 -63 1709 -30 14 -273 16 -2497 16 -2076 -1 -2468 -3 -2495 -15z m4837
-1695 l0 -1490 -2345 0 -2345 0 0 1490 0 1490 2345 0 2345 0 0 -1490z"/>
<path d="M3720 3715 c-182 -41 -365 -186 -449 -355 -121 -246 -74 -509 128
-711 126 -126 270 -190 431 -191 108 -1 173 14 280 64 119 57 239 177 298 298
137 277 64 566 -195 777 -130 105 -333 154 -493 118z m220 -209 c0 -3 -46 -89
-102 -193 -116 -215 -123 -243 -72 -293 29 -29 35 -31 239 -57 116 -14 214
-30 219 -34 26 -23 -79 -157 -159 -204 -58 -34 -145 -55 -225 -55 -250 1 -420
171 -420 421 0 194 109 350 283 404 38 12 237 21 237 11z m279 -221 c16 -33
32 -77 36 -97 6 -36 5 -38 -22 -38 -36 1 -212 26 -217 31 -2 2 23 55 56 118
l61 114 29 -34 c15 -19 41 -61 57 -94z"/>
<path d="M2392 3614 c-54 -38 -52 6 -52 -1044 0 -1063 -2 -1023 59 -1054 38
-20 64 -20 102 0 61 31 59 -9 59 1049 0 1040 1 1012 -51 1049 -30 20 -88 21
-117 0z"/>
<path d="M1949 2961 l-29 -29 0 -676 c0 -476 3 -682 11 -700 28 -60 122 -71
170 -20 l24 26 3 671 c3 608 1 675 -13 703 -32 61 -117 74 -166 25z"/>
<path d="M1114 2761 c-17 -11 -36 -34 -43 -52 -8 -22 -11 -196 -11 -571 0
-591 0 -592 59 -622 38 -20 64 -20 102 0 59 30 59 31 59 624 0 593 0 594 -59
624 -40 21 -69 20 -107 -3z"/>
<path d="M1553 2556 c-64 -29 -64 -26 -61 -535 l3 -459 24 -26 c48 -51 142
-40 170 20 8 17 11 167 11 484 l0 460 -27 30 c-33 36 -76 45 -120 26z"/>
<path d="M674 2106 l-34 -34 0 -252 0 -252 35 -35 c32 -32 39 -35 78 -30 30 4
50 15 70 37 l27 30 0 251 0 251 -34 34 c-26 26 -42 34 -71 34 -29 0 -45 -8
-71 -34z"/>
<path d="M3255 2128 c-37 -20 -55 -52 -55 -96 0 -35 6 -49 29 -73 l29 -29 576
0 575 0 26 23 c53 46 49 133 -8 167 -31 19 -53 20 -592 20 -388 -1 -566 -4
-580 -12z"/>
<path d="M3229 1681 c-50 -51 -36 -137 28 -170 15 -8 188 -11 580 -11 536 0
559 1 590 20 57 34 61 121 8 168 l-26 22 -575 0 -576 0 -29 -29z"/>
<path d="M1593 615 c-32 -32 -35 -39 -30 -78 4 -30 15 -50 37 -69 l30 -28 923
0 c898 0 923 1 954 20 57 34 61 121 8 168 l-26 22 -931 0 -930 0 -35 -35z"/>
</g>
</svg>
