<?xml version="1.0" standalone="no"?>
<!DOCTYPE svg PUBLIC "-//W3C//DTD SVG 20010904//EN"
 "http://www.w3.org/TR/2001/REC-SVG-20010904/DTD/svg10.dtd">
<svg version="1.0" xmlns="http://www.w3.org/2000/svg"
 width="512.000000pt" height="512.000000pt" viewBox="0 0 512.000000 512.000000"
 preserveAspectRatio="xMidYMid meet">

<g transform="translate(0.000000,512.000000) scale(0.100000,-0.100000)"
fill="#757575" stroke="none">
<path d="M3423 4435 c-149 -40 -303 -162 -371 -292 -124 -236 -81 -517 106
-701 35 -35 62 -64 60 -65 -1 -2 -25 -13 -53 -26 -128 -60 -262 -174 -337
-288 -50 -75 -95 -193 -111 -290 l-13 -78 -405 0 -404 0 -1 108 -1 107 324 0
325 0 29 29 29 29 0 566 0 565 -24 28 -24 28 -939 3 c-516 1 -948 0 -960 -3
-12 -3 -32 -15 -43 -27 -20 -21 -20 -33 -20 -589 0 -312 3 -575 6 -584 16 -41
48 -45 379 -45 l315 0 0 -110 0 -110 -477 0 c-504 -1 -496 0 -521 -47 -9 -16
-12 -266 -12 -963 0 -999 -1 -986 45 -1004 22 -8 4448 -8 4470 0 46 18 45 5
45 1004 0 697 -3 947 -12 963 -23 43 -36 46 -210 47 l-166 0 -12 73 c-16 93
-57 210 -101 283 -73 123 -215 247 -357 313 l-52 24 68 71 c115 122 165 247
165 411 0 55 -7 114 -18 150 -59 206 -221 366 -425 420 -69 19 -228 18 -297 0z
m229 -166 c263 -56 410 -339 299 -575 -105 -224 -358 -310 -574 -197 -81 43
-138 104 -181 193 -29 60 -31 73 -31 171 0 101 1 108 38 181 85 173 268 265
449 227z m-1232 -734 l0 -445 -830 0 -830 0 0 445 0 445 830 0 830 0 0 -445z
m1366 -295 c217 -55 378 -195 449 -393 13 -35 26 -84 30 -110 l7 -47 -690 0
c-380 0 -693 3 -695 8 -10 17 25 142 59 212 71 144 235 275 407 325 134 39
293 40 433 5z m-2068 -437 l-3 -108 -122 -3 -123 -3 0 111 0 110 125 0 126 0
-3 -107z m2942 -1123 l0 -840 -2100 0 -2100 0 0 840 0 840 2100 0 2100 0 0
-840z"/>
<path d="M2345 2275 l-25 -24 0 -586 0 -586 25 -24 24 -25 976 0 976 0 24 25
25 24 0 576 c0 592 -1 603 -39 632 -12 10 -240 12 -989 13 l-973 0 -24 -25z
m1845 -615 l0 -460 -845 0 -845 0 0 460 0 460 845 0 845 0 0 -460z"/>
<path d="M2960 1903 c-62 -23 -81 -103 -35 -148 l24 -25 391 0 392 0 29 29
c16 16 29 39 29 51 0 37 -28 77 -61 89 -33 11 -739 15 -769 4z"/>
<path d="M2930 1513 c-57 -29 -66 -98 -18 -143 21 -19 34 -20 415 -20 l394 0
24 25 c33 32 33 84 1 122 l-24 28 -379 3 c-345 2 -381 1 -413 -15z"/>
<path d="M1031 1983 c-247 -252 -261 -269 -261 -304 0 -48 48 -93 92 -87 l28
5 0 -149 0 -148 -59 0 c-54 0 -62 -3 -85 -31 -14 -17 -26 -39 -26 -50 0 -32
28 -77 52 -85 12 -3 278 -7 590 -7 509 0 570 2 593 17 44 29 46 96 3 136 -16
15 -35 20 -75 20 l-53 0 0 150 0 150 29 -6 c68 -14 124 56 97 119 -8 18 -129
147 -270 287 l-256 254 -33 -32 -33 -32 -29 30 c-16 16 -32 30 -36 30 -4 0
-125 -120 -268 -267z m464 -43 l120 -120 -245 0 -245 0 120 120 c66 66 122
120 125 120 3 0 59 -54 125 -120z m-215 -470 l0 -170 -105 0 -105 0 0 170 0
170 105 0 105 0 0 -170z m370 0 l0 -170 -95 0 -95 0 0 170 0 170 95 0 95 0 0
-170z"/>
</g>
</svg>
